# xmcd CD database file
#
# Track frame offsets:
#	150
#	24726
#	65058
#	89962
#	115713
#	141679
#	161897
#	181402
#	218569
#
# Disc length: 3690 seconds
#
# Revision: 0
# Processed by: cddbd v1.5.1PL2 Copyright (c) Steve Scherf et al.
# Submitted via: CDex 1.51
#
DISCID=8e0e6809
DTITLE=Halpern, Steven - Healing Music
DYEAR=2002
DGENRE=New Age
TTITLE0=Invocation At Eleusis
TTITLE1=Blue Ganges
TTITLE2=Higher Ground
TTITLE3=Ascension
TTITLE4=The Light In Your Eyes
TTITLE5=Inside The Temple
TTITLE6=Deep Healing
TTITLE7=Crystal Suite
TTITLE8=Chakra Balancing
EXTD=YEAR: 2002
EXTT0=
EXTT1=
EXTT2=
EXTT3=
EXTT4=
EXTT5=
EXTT6=
EXTT7=
EXTT8=
PLAYORDER=
